<svg xmlns="http://www.w3.org/2000/svg" viewBox="0 0 800 600">
  <!-- Background circles -->
  <ellipse cx="400" cy="550" rx="380" ry="50" fill="#E0F2FE" opacity="0.5"/>
  <ellipse cx="150" cy="200" rx="120" ry="120" fill="#BFDBFE" opacity="0.3"/>
  <ellipse cx="650" cy="150" rx="100" ry="100" fill="#BFDBFE" opacity="0.3"/>
  
  <!-- Clipboard with dollar sign (left) -->
  <rect x="80" y="80" width="140" height="200" rx="10" fill="#3B82F6" stroke="#1E40AF" stroke-width="3"/>
  <rect x="100" y="60" width="100" height="30" rx="8" fill="#1E40AF"/>
  <circle cx="150" cy="75" r="8" fill="#3B82F6"/>
  <rect x="110" y="100" width="120" height="160" rx="5" fill="white"/>
  <text x="150" y="180" font-size="60" fill="#3B82F6" font-weight="bold" text-anchor="middle">$</text>
  <line x1="130" y1="210" x2="210" y2="210" stroke="#93C5FD" stroke-width="4"/>
  <line x1="130" y1="230" x2="210" y2="230" stroke="#93C5FD" stroke-width="4"/>
  <line x1="130" y1="250" x2="180" y2="250" stroke="#93C5FD" stroke-width="4"/>
  
  <!-- Medical professional with clipboard (left person) -->
  <ellipse cx="180" cy="400" rx="50" ry="15" fill="#1E40AF" opacity="0.2"/>
  <rect x="150" y="330" width="60" height="70" rx="5" fill="#3B82F6"/>
  <circle cx="180" cy="310" r="25" fill="#1E3A8A"/>
  <path d="M 160 310 Q 165 318 180 318 Q 195 318 200 310" fill="#F59E0B"/>
  <circle cx="175" cy="305" r="3" fill="white"/>
  <circle cx="185" cy="305" r="3" fill="white"/>
  <path d="M 175 315 Q 180 318 185 315" fill="none" stroke="#1E3A8A" stroke-width="2"/>
  <rect x="145" y="360" width="30" height="45" fill="#1E40AF"/>
  <rect x="185" y="360" width="30" height="45" fill="#1E40AF"/>
  <path d="M 200 350 L 220 380 L 210 390" fill="#F59E0B" stroke="#D97706" stroke-width="2"/>
  
  <!-- Calendar (top right) -->
  <rect x="320" y="70" width="200" height="150" rx="10" fill="#3B82F6" stroke="#1E40AF" stroke-width="3"/>
  <rect x="330" y="50" width="50" height="25" rx="8" fill="#1E40AF"/>
  <rect x="470" y="50" width="50" height="25" rx="8" fill="#1E40AF"/>
  <rect x="340" y="100" width="180" height="110" rx="5" fill="white"/>
  <g fill="none" stroke="#BFDBFE" stroke-width="2">
    <line x1="375" y1="100" x2="375" y2="210"/>
    <line x1="410" y1="100" x2="410" y2="210"/>
    <line x1="445" y1="100" x2="445" y2="210"/>
    <line x1="480" y1="100" x2="480" y2="210"/>
    <line x1="340" y1="130" x2="520" y2="130"/>
    <line x1="340" y1="160" x2="520" y2="160"/>
    <line x1="340" y1="190" x2="520" y2="190"/>
  </g>
  <circle cx="395" cy="145" r="8" fill="#3B82F6"/>
  <circle cx="430" cy="145" r="8" fill="#93C5FD"/>
  <circle cx="360" cy="175" r="8" fill="#93C5FD"/>
  <circle cx="465" cy="175" r="8" fill="#93C5FD"/>
  <path d="M 385 140 L 395 150 L 410 130" fill="none" stroke="white" stroke-width="3" stroke-linecap="round"/>
  <circle cx="560" cy="120" r="35" fill="#10B981"/>
  <path d="M 545 120 L 555 130 L 575 110" fill="none" stroke="white" stroke-width="4" stroke-linecap="round"/>
  
  <!-- Doctor (top right) -->
  <ellipse cx="600" cy="280" rx="50" ry="15" fill="#1E40AF" opacity="0.2"/>
  <rect x="570" y="210" width="60" height="70" rx="5" fill="white" stroke="#3B82F6" stroke-width="2"/>
  <circle cx="600" cy="190" r="25" fill="#F59E0B"/>
  <rect x="588" y="170" width="24" height="15" rx="5" fill="#1E3A8A"/>
  <rect x="585" y="175" width="30" height="12" rx="3" fill="#60A5FA" opacity="0.5"/>
  <circle cx="593" cy="185" r="3" fill="white"/>
  <circle cx="607" cy="185" r="3" fill="white"/>
  <rect x="595" y="188" width="10" height="8" rx="2" fill="white" stroke="#1E3A8A" stroke-width="1"/>
  <path d="M 593 195 Q 600 198 607 195" fill="none" stroke="#1E3A8A" stroke-width="2"/>
  <line x1="600" y1="210" x2="600" y2="215" stroke="#3B82F6" stroke-width="3"/>
  <circle cx="600" cy="220" r="8" fill="#3B82F6"/>
  <path d="M 595 220 L 605 220 M 600 215 L 600 225" stroke="white" stroke-width="2"/>
  <rect x="565" y="240" width="30" height="45" fill="#1E40AF"/>
  <rect x="605" y="240" width="30" height="45" fill="#1E40AF"/>
  <path d="M 620 230 L 640 250 Q 645 255 640 260" fill="#F59E0B" stroke="#D97706" stroke-width="2"/>
  
  <!-- Laptop with doctor (bottom left) -->
  <rect x="80" y="400" width="180" height="110" rx="8" fill="#1E40AF"/>
  <rect x="90" y="410" width="160" height="90" rx="5" fill="#3B82F6"/>
  <rect x="100" y="420" width="140" height="70" rx="3" fill="white"/>
  <circle cx="170" cy="445" r="18" fill="#F59E0B"/>
  <rect x="160" y="462" width="20" height="25" fill="white" stroke="#3B82F6" stroke-width="2"/>
  <circle cx="165" cy="440" r="2" fill="#1E3A8A"/>
  <circle cx="175" cy="440" r="2" fill="#1E3A8A"/>
  <path d="M 165 448 Q 170 450 175 448" fill="none" stroke="#1E3A8A" stroke-width="1"/>
  <line x1="170" y1="462" x2="170" y2="466" stroke="#3B82F6" stroke-width="2"/>
  <circle cx="170" cy="470" r="5" fill="#3B82F6"/>
  <path d="M 167 470 L 173 470 M 170 467 L 170 473" stroke="white" stroke-width="1.5"/>
  <path d="M 135 470 L 145 490" fill="none" stroke="#1E3A8A" stroke-width="3"/>
  <path d="M 205 470 L 195 490" fill="none" stroke="#1E3A8A" stroke-width="3"/>
  <rect x="70" y="510" width="200" height="8" rx="4" fill="#1E40AF"/>
  
  <!-- Chat bubble -->
  <circle cx="90" cy="350" r="35" fill="white" stroke="#3B82F6" stroke-width="3"/>
  <path d="M 75 365 L 70 380 L 85 370" fill="white" stroke="#3B82F6" stroke-width="2"/>
  <path d="M 80 345 L 95 345 M 87.5 338 L 87.5 352" stroke="#10B981" stroke-width="4" stroke-linecap="round"/>
  
  <!-- Mobile phone (bottom center-right) -->
  <rect x="400" y="380" width="80" height="140" rx="10" fill="#1E40AF" stroke="#3B82F6" stroke-width="3"/>
  <rect x="410" y="400" width="60" height="100" rx="5" fill="white"/>
  <rect x="425" y="385" width="30" height="8" rx="4" fill="#3B82F6"/>
  <line x1="420" y1="420" x2="470" y2="420" stroke="#BFDBFE" stroke-width="3"/>
  <line x1="420" y1="435" x2="470" y2="435" stroke="#BFDBFE" stroke-width="3"/>
  <rect x="422" y="445" width="12" height="12" rx="2" fill="#EF4444"/>
  <rect x="439" y="445" width="12" height="12" rx="2" fill="#3B82F6"/>
  <rect x="422" y="462" width="12" height="12" rx="2" fill="#3B82F6"/>
  <rect x="439" y="462" width="12" height="12" rx="2" fill="#3B82F6"/>
  <circle cx="555" cy="450" r="35" fill="#3B82F6"/>
  <path d="M 540 450 L 550 460 L 570 440" fill="none" stroke="white" stroke-width="4" stroke-linecap="round"/>
  
  <!-- Clock (bottom right) -->
  <circle cx="650" cy="450" r="50" fill="white" stroke="#1E40AF" stroke-width="4"/>
  <circle cx="650" cy="450" r="40" fill="none" stroke="#BFDBFE" stroke-width="2"/>
  <line x1="650" y1="450" x2="650" y2="425" stroke="#3B82F6" stroke-width="4" stroke-linecap="round"/>
  <line x1="650" y1="450" x2="670" y2="460" stroke="#3B82F6" stroke-width="3" stroke-linecap="round"/>
  <circle cx="650" cy="450" r="5" fill="#1E40AF"/>
  <line x1="610" y1="450" x2="620" y2="450" stroke="#3B82F6" stroke-width="2"/>
  <line x1="680" y1="450" x2="690" y2="450" stroke="#3B82F6" stroke-width="2"/>
  <line x1="650" y1="410" x2="650" y2="420" stroke="#3B82F6" stroke-width="2"/>
  <line x1="650" y1="480" x2="650" y2="490" stroke="#3B82F6" stroke-width="2"/>
</svg>
